<svg xmlns="http://www.w3.org/2000/svg" viewBox="0 0 48 48" width="40" height="40" aria-hidden="true">
  <path fill="#1c3aa9" d="M24 4a20 20 0 0 1 19.2 14.5l-6.8 2.8A13 13 0 0 0 24 11a13 13 0 0 0-12.4 9.1L5 17.3A20 20 0 0 1 24 4z"/>
  <path fill="#4285f4" d="M43.2 18.5A20 20 0 0 1 24 44V37a13 13 0 0 0 12.4-9.1l6.8 2.8A20 20 0 0 1 43.2 18.5z"/>
  <path fill="#ababab" d="M24 44A20 20 0 0 1 4.8 29.5l6.8-2.8A13 13 0 0 0 24 37V44z"/>
  <path fill="#9e9e9e" d="M4.8 29.5A20 20 0 0 1 11.6 11l6.8 2.8A13 13 0 0 0 11.6 29.5H4.8z"/>
</svg>
